<svg width="200" height="60" viewBox="0 0 200 60" fill="none" xmlns="http://www.w3.org/2000/svg">
  <!-- Background circle for the icon -->
  <circle cx="30" cy="30" r="24" fill="#2563eb" opacity="0.1"/>
  
  <!-- Main icon - accessibility symbol with heart -->
  <path d="M30 15c-2.2 0-4 1.8-4 4s1.8 4 4 4 4-1.8 4-4-1.8-4-4-4z" fill="#2563eb"/>
  <path d="M38 28c-1.1 0-2 0.9-2 2v8c0 0.6-0.4 1-1 1h-10c-0.6 0-1-0.4-1-1v-8c0-1.1-0.9-2-2-2s-2 0.9-2 2v8c0 2.8 2.2 5 5 5h10c2.8 0 5-2.2 5-5v-8c0-1.1-0.9-2-2-2z" fill="#2563eb"/>
  <path d="M26 32h8v2h-8z" fill="#2563eb"/>
  
  <!-- Heart accent -->
  <path d="M33 26c0-1.5 1-2.5 2-2.5s2 1 2 2.5c0 2-4 4-4 4s-4-2-4-4c0-1.5 1-2.5 2-2.5s2 1 2 2.5" fill="#ef4444" opacity="0.8"/>
  
  <!-- Text: SteadyAccess -->
  <text x="64" y="38" font-family="system-ui, -apple-system, sans-serif" font-size="22" font-weight="700" fill="#1f2937">
    Steady<tspan fill="#2563eb">Access</tspan>
  </text>
</svg>
